<svg width="16" height="16" viewBox="0 0 16 16" fill="none" xmlns="http://www.w3.org/2000/svg">
<path fill-rule="evenodd" clip-rule="evenodd" d="M2.28571 1.14286C2.28571 0.511675 2.79739 0 3.42857 0C4.05975 0 4.57143 0.511675 4.57143 1.14286L11.4286 1.14286C11.4286 0.511675 11.9402 0 12.5714 0C13.2026 0 13.7143 0.511675 13.7143 1.14286C14.9767 1.14286 16 2.16621 16 3.42857V5.71429V13.7143C16 14.9767 14.9767 16 13.7143 16H2.28571C1.02335 16 0 14.9767 0 13.7143V5.71429V3.42857C0 2.16621 1.02335 1.14286 2.28571 1.14286ZM14.8571 5.71429H1.14286V13.7143C1.14286 14.3455 1.65453 14.8571 2.28571 14.8571H13.7143C14.3455 14.8571 14.8571 14.3455 14.8571 13.7143V5.71429Z" fill="#959595"/>
</svg>
