<?xml version="1.0" encoding="utf-8"?>
<!-- Generator: Adobe Illustrator 16.0.0, SVG Export Plug-In . SVG Version: 6.00 Build 0)  -->
<!DOCTYPE svg PUBLIC "-//W3C//DTD SVG 1.1//EN" "http://www.w3.org/Graphics/SVG/1.1/DTD/svg11.dtd">
<svg version="1.1" id="_x30_01_x5F_디자인" xmlns="http://www.w3.org/2000/svg" xmlns:xlink="http://www.w3.org/1999/xlink"
	 x="0px" y="0px" width="282.663px" height="85.039px" viewBox="0 0 282.663 85.039" enable-background="new 0 0 282.663 85.039"
	 xml:space="preserve">
<g>
	<path fill="#FFFFFF" d="M12.75,84.612c-6.798,0-12.328-5.528-12.328-12.326V12.743c0-6.794,5.53-12.322,12.328-12.322h59.535
		c6.798,0,12.328,5.528,12.328,12.322v59.543c0,6.798-5.53,12.326-12.328,12.326H12.75z"/>
	<path fill="#212121" d="M72.286,0H12.757C5.712,0,0,5.71,0,12.756v59.527c0,7.044,5.712,12.756,12.756,12.756h59.529
		c7.044,0,12.756-5.712,12.756-12.756V12.756C85.042,5.71,79.33,0,72.286,0 M72.286,0.85c6.564,0,11.906,5.342,11.906,11.906v59.527
		c0,6.564-5.342,11.906-11.906,11.906H12.757c-6.564,0-11.904-5.342-11.904-11.906V12.756c0-6.564,5.34-11.906,11.904-11.906H72.286
		z"/>
	<path fill="#920783" d="M35.994,32.459v34.984c0,3.59,2.918,6.54,6.514,6.54c3.598,0,6.522-2.95,6.522-6.54V32.167
		c0-11.588-6.138-17.712-17.758-17.712H20.757c-3.59,0-6.512,2.924-6.512,6.524c0,3.596,2.922,6.54,6.512,6.54h10.2
		C33.408,27.519,35.994,29.153,35.994,32.459"/>
	<path fill="#F08300" d="M64.25,14.455H53.772c-3.506,0-6.522,0.566-9.006,1.654c3.514,2.75,5.678,6.874,6.348,12.288
		c0.868-0.584,1.918-0.878,2.946-0.878h10.19c3.628,0,6.548-2.944,6.548-6.541C70.798,17.377,67.878,14.455,64.25,14.455"/>
	<path fill="#212121" d="M123.513,60c5.452,0,13.022-0.576,17.705-1.41c2.438-0.45,4.17-2.246,3.656-4.94
		c-0.514-2.63-2.502-3.336-4.94-3.014c-4.49,0.64-9.878,1.218-15.33,1.218h-2.95c-0.898,0-1.092-0.256-1.092-1.154v-8.852h14.946
		c2.502,0,4.362-1.348,4.362-4.042c0-2.63-1.86-3.976-4.362-3.976h-14.946v-7.314c0-0.898,0.194-1.09,1.092-1.09h14.24
		c2.502,0,4.298-1.412,4.298-4.042c0-2.694-1.796-4.104-4.298-4.104h-18.988c-4.234,0-6.35,2.116-6.35,6.286v30.149
		c0,4.17,2.116,6.286,6.35,6.286H123.513z M150.133,69.302c0,3.014,2.116,4.682,5.132,4.682c3.014,0,5.132-1.668,5.132-4.682V19.139
		c0-3.016-2.118-4.682-5.132-4.682c-3.016,0-5.132,1.667-5.132,4.682V69.302z"/>
	<path fill="#212121" d="M181.694,27.028c0-0.898,0.192-1.09,1.09-1.09h8.274c0.898,0,1.092,0.192,1.092,1.09v21.81
		c0,0.898-0.194,1.091-1.092,1.091h-8.274c-0.898,0-1.09-0.192-1.09-1.091V27.028z M211.907,32.866h-9.942v-9.044
		c0-4.17-2.246-6.352-6.416-6.352h-17.446c-4.17,0-6.416,2.182-6.416,6.352V52.11c0,4.17,2.246,6.286,6.416,6.286h17.446
		c4.17,0,6.416-2.116,6.416-6.286V41.398h9.942v27.902c0,3.016,2.116,4.684,5.132,4.684c3.014,0,5.132-1.668,5.132-4.684V19.138
		c0-3.014-2.118-4.682-5.132-4.682c-3.016,0-5.132,1.668-5.132,4.682V32.866z"/>
	<path fill="#212121" d="M263.29,55.959c2.436-0.449,4.232-2.438,3.72-5.26c-0.45-2.758-2.566-3.656-5.004-3.271
		c-4.554,0.77-10.264,1.153-15.78,1.153h-1.41c-0.898,0-1.092-0.191-1.092-1.09V22.217c0-2.822-1.86-4.938-5.13-4.938
		c-3.272,0-5.132,2.116-5.132,4.938V51.02c0,4.233,2.116,6.414,6.478,6.414h5.388C251.936,57.434,257.516,56.922,263.29,55.959
		 M272.397,69.302c0,3.014,2.116,4.682,5.132,4.682c3.014,0,5.132-1.668,5.132-4.682V19.139c0-3.016-2.118-4.682-5.132-4.682
		c-3.016,0-5.132,1.667-5.132,4.682V69.302z"/>
</g>
</svg>
